<svg width="128" height="128" viewBox="0 0 128 128" fill="none" xmlns="http://www.w3.org/2000/svg">
<g clip-path="url(#clip0)">
<path d="M20.0636 17.4599C-5.63512 41.7212 -6.79961 82.221 17.4617 107.92C17.8878 108.372 18.3217 108.818 18.7619 109.257C43.7515 134.248 84.2689 134.248 109.257 109.257C134.248 84.2686 134.248 43.7512 109.257 18.7616C84.7786 -5.73919 45.2489 -6.31638 20.0636 17.4599ZM32.3383 45.0053L45.007 32.3365L64.011 51.3405L83.015 32.3365L95.6852 45.0053L76.6812 64.0156L95.6864 83.013L83.0162 95.6832L64.0122 76.6781L45.0082 95.6832L32.3394 83.013L51.342 64.0156L32.3383 45.0053Z" fill="#F25148"/>
</g>
<defs>
<clipPath id="clip0">
<rect width="128" height="128" fill="white"/>
</clipPath>
</defs>
</svg>
