<svg width="226" height="88" viewBox="0 0 226 88" fill="none" xmlns="http://www.w3.org/2000/svg">
<path d="M17.8015 0L61.2586 25.0937L61.26 62.7318L17.8029 37.6381L17.8015 0Z" fill="#BA5B25"/>
<rect y="25.2681" width="61.4603" height="37.6381" fill="#D16629"/>
<path d="M0 25.2681L43.4571 50.3618L43.4585 87.9999L0.00141905 62.9062L0 25.2681Z" fill="#FF7C32"/>
<path d="M102.904 34.9759V35.9999H93.72V35.1839L101.144 25.8239H93.832V24.7999H102.712V25.6159L95.304 34.9759H102.904Z" fill="white"/>
<path d="M112.1 32.1439H105.06C105.124 33.0186 105.46 33.7279 106.068 34.2719C106.676 34.8053 107.444 35.0719 108.372 35.0719C108.894 35.0719 109.374 34.9813 109.812 34.7999C110.249 34.6079 110.628 34.3306 110.948 33.9679L111.588 34.7039C111.214 35.1519 110.745 35.4933 110.18 35.7279C109.625 35.9626 109.012 36.0799 108.34 36.0799C107.476 36.0799 106.708 35.8986 106.036 35.5359C105.374 35.1626 104.857 34.6506 104.484 33.9999C104.11 33.3493 103.924 32.6133 103.924 31.7919C103.924 30.9706 104.1 30.2346 104.452 29.5839C104.814 28.9333 105.305 28.4266 105.924 28.0639C106.553 27.7013 107.257 27.5199 108.036 27.5199C108.814 27.5199 109.513 27.7013 110.132 28.0639C110.75 28.4266 111.236 28.9333 111.588 29.5839C111.94 30.2239 112.116 30.9599 112.116 31.7919L112.1 32.1439ZM108.036 28.4959C107.225 28.4959 106.542 28.7573 105.988 29.2799C105.444 29.7919 105.134 30.4639 105.06 31.2959H111.028C110.953 30.4639 110.638 29.7919 110.084 29.2799C109.54 28.7573 108.857 28.4959 108.036 28.4959Z" fill="white"/>
<path d="M115.516 29.2319C115.782 28.6666 116.177 28.2399 116.7 27.9519C117.233 27.6639 117.889 27.5199 118.668 27.5199V28.6239L118.396 28.6079C117.51 28.6079 116.817 28.8799 116.316 29.4239C115.814 29.9679 115.564 30.7306 115.564 31.7119V35.9999H114.428V27.5839H115.516V29.2319Z" fill="white"/>
<path d="M124.087 36.0799C123.276 36.0799 122.545 35.8986 121.895 35.5359C121.244 35.1626 120.732 34.6506 120.359 33.9999C119.985 33.3493 119.799 32.6133 119.799 31.7919C119.799 30.9706 119.985 30.2346 120.359 29.5839C120.732 28.9333 121.244 28.4266 121.895 28.0639C122.545 27.7013 123.276 27.5199 124.087 27.5199C124.897 27.5199 125.628 27.7013 126.279 28.0639C126.929 28.4266 127.436 28.9333 127.799 29.5839C128.172 30.2346 128.359 30.9706 128.359 31.7919C128.359 32.6133 128.172 33.3493 127.799 33.9999C127.436 34.6506 126.929 35.1626 126.279 35.5359C125.628 35.8986 124.897 36.0799 124.087 36.0799ZM124.087 35.0719C124.684 35.0719 125.217 34.9386 125.687 34.6719C126.167 34.3946 126.54 34.0053 126.807 33.5039C127.073 33.0026 127.207 32.4319 127.207 31.7919C127.207 31.1519 127.073 30.5813 126.807 30.0799C126.54 29.5786 126.167 29.1946 125.687 28.9279C125.217 28.6506 124.684 28.5119 124.087 28.5119C123.489 28.5119 122.951 28.6506 122.471 28.9279C122.001 29.1946 121.628 29.5786 121.351 30.0799C121.084 30.5813 120.951 31.1519 120.951 31.7919C120.951 32.4319 121.084 33.0026 121.351 33.5039C121.628 34.0053 122.001 34.3946 122.471 34.6719C122.951 34.9386 123.489 35.0719 124.087 35.0719Z" fill="white"/>
<path d="M130.21 31.1679H134.402V32.1599H130.21V31.1679Z" fill="white"/>
<path d="M140.655 30.7359L138.367 33.0559V35.9999H137.183V24.7999H138.367V31.5679L144.943 24.7999H146.303L141.455 29.8719L146.639 35.9999H145.231L140.655 30.7359Z" fill="white"/>
<path d="M152.45 27.5199C153.506 27.5199 154.343 27.8293 154.962 28.4479C155.591 29.0559 155.906 29.9466 155.906 31.1199V35.9999H154.77V31.2319C154.77 30.3573 154.551 29.6906 154.114 29.2319C153.677 28.7733 153.053 28.5439 152.242 28.5439C151.335 28.5439 150.615 28.8159 150.082 29.3599C149.559 29.8933 149.298 30.6346 149.298 31.5839V35.9999H148.162V27.5839H149.25V29.1359C149.559 28.6239 149.986 28.2293 150.53 27.9519C151.085 27.6639 151.725 27.5199 152.45 27.5199Z" fill="white"/>
<path d="M162.462 36.0799C161.651 36.0799 160.92 35.8986 160.27 35.5359C159.619 35.1626 159.107 34.6506 158.733 33.9999C158.36 33.3493 158.174 32.6133 158.174 31.7919C158.174 30.9706 158.36 30.2346 158.733 29.5839C159.107 28.9333 159.619 28.4266 160.27 28.0639C160.92 27.7013 161.651 27.5199 162.462 27.5199C163.272 27.5199 164.003 27.7013 164.654 28.0639C165.304 28.4266 165.811 28.9333 166.174 29.5839C166.547 30.2346 166.734 30.9706 166.734 31.7919C166.734 32.6133 166.547 33.3493 166.174 33.9999C165.811 34.6506 165.304 35.1626 164.654 35.5359C164.003 35.8986 163.272 36.0799 162.462 36.0799ZM162.462 35.0719C163.059 35.0719 163.592 34.9386 164.062 34.6719C164.542 34.3946 164.915 34.0053 165.182 33.5039C165.448 33.0026 165.582 32.4319 165.582 31.7919C165.582 31.1519 165.448 30.5813 165.182 30.0799C164.915 29.5786 164.542 29.1946 164.062 28.9279C163.592 28.6506 163.059 28.5119 162.462 28.5119C161.864 28.5119 161.326 28.6506 160.846 28.9279C160.376 29.1946 160.003 29.5786 159.726 30.0799C159.459 30.5813 159.326 31.1519 159.326 31.7919C159.326 32.4319 159.459 33.0026 159.726 33.5039C160.003 34.0053 160.376 34.3946 160.846 34.6719C161.326 34.9386 161.864 35.0719 162.462 35.0719Z" fill="white"/>
<path d="M181.17 27.5839L177.986 35.9999H176.914L174.258 29.1039L171.602 35.9999H170.53L167.362 27.5839H168.45L171.09 34.7359L173.794 27.5839H174.77L177.458 34.7359L180.13 27.5839H181.17Z" fill="white"/>
<path d="M182.881 24.1279H184.017V35.9999H182.881V24.1279Z" fill="white"/>
<path d="M194.506 32.1439H187.466C187.53 33.0186 187.866 33.7279 188.474 34.2719C189.082 34.8053 189.85 35.0719 190.778 35.0719C191.3 35.0719 191.78 34.9813 192.218 34.7999C192.655 34.6079 193.034 34.3306 193.354 33.9679L193.994 34.7039C193.62 35.1519 193.151 35.4933 192.586 35.7279C192.031 35.9626 191.418 36.0799 190.746 36.0799C189.882 36.0799 189.114 35.8986 188.442 35.5359C187.78 35.1626 187.263 34.6506 186.89 33.9999C186.516 33.3493 186.33 32.6133 186.33 31.7919C186.33 30.9706 186.506 30.2346 186.858 29.5839C187.22 28.9333 187.711 28.4266 188.33 28.0639C188.959 27.7013 189.663 27.5199 190.442 27.5199C191.22 27.5199 191.919 27.7013 192.538 28.0639C193.156 28.4266 193.642 28.9333 193.994 29.5839C194.346 30.2239 194.522 30.9599 194.522 31.7919L194.506 32.1439ZM190.442 28.4959C189.631 28.4959 188.948 28.7573 188.394 29.2799C187.85 29.7919 187.54 30.4639 187.466 31.2959H193.434C193.359 30.4639 193.044 29.7919 192.49 29.2799C191.946 28.7573 191.263 28.4959 190.442 28.4959Z" fill="white"/>
<path d="M204.514 24.1279V35.9999H203.426V34.3359C203.085 34.9013 202.631 35.3333 202.066 35.6319C201.511 35.9306 200.882 36.0799 200.178 36.0799C199.389 36.0799 198.674 35.8986 198.034 35.5359C197.394 35.1733 196.893 34.6666 196.53 34.0159C196.167 33.3653 195.986 32.6239 195.986 31.7919C195.986 30.9599 196.167 30.2186 196.53 29.5679C196.893 28.9173 197.394 28.4159 198.034 28.0639C198.674 27.7013 199.389 27.5199 200.178 27.5199C200.861 27.5199 201.474 27.6639 202.018 27.9519C202.573 28.2293 203.026 28.6399 203.378 29.1839V24.1279H204.514ZM200.274 35.0719C200.861 35.0719 201.389 34.9386 201.858 34.6719C202.338 34.3946 202.711 34.0053 202.978 33.5039C203.255 33.0026 203.394 32.4319 203.394 31.7919C203.394 31.1519 203.255 30.5813 202.978 30.0799C202.711 29.5786 202.338 29.1946 201.858 28.9279C201.389 28.6506 200.861 28.5119 200.274 28.5119C199.677 28.5119 199.138 28.6506 198.658 28.9279C198.189 29.1946 197.815 29.5786 197.538 30.0799C197.271 30.5813 197.138 31.1519 197.138 31.7919C197.138 32.4319 197.271 33.0026 197.538 33.5039C197.815 34.0053 198.189 34.3946 198.658 34.6719C199.138 34.9386 199.677 35.0719 200.274 35.0719Z" fill="white"/>
<path d="M215.47 27.5839V34.9759C215.47 36.4053 215.118 37.4613 214.414 38.1439C213.72 38.8373 212.67 39.1839 211.262 39.1839C210.483 39.1839 209.742 39.0666 209.038 38.8319C208.344 38.6079 207.779 38.2933 207.342 37.8879L207.918 37.0239C208.323 37.3866 208.814 37.6693 209.39 37.8719C209.976 38.0746 210.59 38.1759 211.23 38.1759C212.296 38.1759 213.08 37.9253 213.582 37.4239C214.083 36.9333 214.334 36.1653 214.334 35.1199V34.0479C213.982 34.5813 213.518 34.9866 212.942 35.2639C212.376 35.5413 211.747 35.6799 211.054 35.6799C210.264 35.6799 209.544 35.5093 208.894 35.1679C208.254 34.8159 207.747 34.3306 207.374 33.7119C207.011 33.0826 206.83 32.3733 206.83 31.5839C206.83 30.7946 207.011 30.0906 207.374 29.4719C207.747 28.8533 208.254 28.3733 208.894 28.0319C209.534 27.6906 210.254 27.5199 211.054 27.5199C211.768 27.5199 212.414 27.6639 212.99 27.9519C213.566 28.2399 214.03 28.6559 214.382 29.1999V27.5839H215.47ZM211.166 34.6719C211.774 34.6719 212.323 34.5439 212.814 34.2879C213.304 34.0213 213.683 33.6533 213.95 33.1839C214.227 32.7146 214.366 32.1813 214.366 31.5839C214.366 30.9866 214.227 30.4586 213.95 29.9999C213.683 29.5306 213.304 29.1679 212.814 28.9119C212.334 28.6453 211.784 28.5119 211.166 28.5119C210.558 28.5119 210.008 28.6399 209.518 28.8959C209.038 29.1519 208.659 29.5146 208.382 29.9839C208.115 30.4533 207.982 30.9866 207.982 31.5839C207.982 32.1813 208.115 32.7146 208.382 33.1839C208.659 33.6533 209.038 34.0213 209.518 34.2879C210.008 34.5439 210.558 34.6719 211.166 34.6719Z" fill="white"/>
<path d="M225.975 32.1439H218.935C218.999 33.0186 219.335 33.7279 219.943 34.2719C220.551 34.8053 221.319 35.0719 222.247 35.0719C222.769 35.0719 223.249 34.9813 223.687 34.7999C224.124 34.6079 224.502 34.3306 224.822 33.9679L225.463 34.7039C225.089 35.1519 224.62 35.4933 224.055 35.7279C223.5 35.9626 222.887 36.0799 222.215 36.0799C221.351 36.0799 220.582 35.8986 219.91 35.5359C219.249 35.1626 218.732 34.6506 218.358 33.9999C217.985 33.3493 217.799 32.6133 217.799 31.7919C217.799 30.9706 217.975 30.2346 218.326 29.5839C218.689 28.9333 219.18 28.4266 219.799 28.0639C220.428 27.7013 221.132 27.5199 221.911 27.5199C222.689 27.5199 223.388 27.7013 224.007 28.0639C224.625 28.4266 225.111 28.9333 225.463 29.5839C225.815 30.2239 225.991 30.9599 225.991 31.7919L225.975 32.1439ZM221.911 28.4959C221.1 28.4959 220.417 28.7573 219.863 29.2799C219.319 29.7919 219.009 30.4639 218.935 31.2959H224.902C224.828 30.4639 224.513 29.7919 223.958 29.2799C223.414 28.7573 222.732 28.4959 221.911 28.4959Z" fill="white"/>
<path d="M102.44 56.1759C103.059 56.3786 103.549 56.7199 103.912 57.1999C104.275 57.6693 104.456 58.2559 104.456 58.9599C104.456 59.9306 104.083 60.6826 103.336 61.2159C102.589 61.7386 101.501 61.9999 100.072 61.9999H94.504V50.7999H99.752C101.075 50.7999 102.093 51.0613 102.808 51.5839C103.523 52.0959 103.88 52.8053 103.88 53.7119C103.88 54.2666 103.752 54.7573 103.496 55.1839C103.24 55.6106 102.888 55.9413 102.44 56.1759ZM96.584 52.4319V55.5199H99.528C100.253 55.5199 100.808 55.3919 101.192 55.1359C101.587 54.8693 101.784 54.4853 101.784 53.9839C101.784 53.4719 101.587 53.0879 101.192 52.8319C100.808 52.5653 100.253 52.4319 99.528 52.4319H96.584ZM99.944 60.3679C101.555 60.3679 102.36 59.8293 102.36 58.7519C102.36 57.6746 101.555 57.1359 99.944 57.1359H96.584V60.3679H99.944Z" fill="white"/>
<path d="M109.748 53.3599C111.007 53.3599 111.967 53.6639 112.628 54.2719C113.3 54.8693 113.636 55.7759 113.636 56.9919V61.9999H111.748V60.9599C111.503 61.3333 111.151 61.6213 110.692 61.8239C110.244 62.0159 109.7 62.1119 109.06 62.1119C108.42 62.1119 107.86 62.0053 107.38 61.7919C106.9 61.5679 106.527 61.2639 106.26 60.8799C106.004 60.4853 105.876 60.0426 105.876 59.5519C105.876 58.7839 106.159 58.1706 106.724 57.7119C107.3 57.2426 108.201 57.0079 109.428 57.0079H111.636V56.8799C111.636 56.2826 111.455 55.8239 111.092 55.5039C110.74 55.1839 110.212 55.0239 109.508 55.0239C109.028 55.0239 108.553 55.0986 108.084 55.2479C107.625 55.3973 107.236 55.6053 106.916 55.8719L106.132 54.4159C106.58 54.0746 107.119 53.8133 107.748 53.6319C108.377 53.4506 109.044 53.3599 109.748 53.3599ZM109.476 60.6559C109.977 60.6559 110.42 60.5439 110.804 60.3199C111.199 60.0853 111.476 59.7546 111.636 59.3279V58.3359H109.572C108.42 58.3359 107.844 58.7146 107.844 59.4719C107.844 59.8346 107.988 60.1226 108.276 60.3359C108.564 60.5493 108.964 60.6559 109.476 60.6559Z" fill="white"/>
<path d="M121.051 53.3599C122.128 53.3599 122.992 53.6746 123.643 54.3039C124.293 54.9333 124.619 55.8666 124.619 57.1039V61.9999H122.619V57.3599C122.619 56.6133 122.443 56.0533 122.091 55.6799C121.739 55.2959 121.237 55.1039 120.587 55.1039C119.851 55.1039 119.269 55.3279 118.843 55.7759C118.416 56.2133 118.203 56.8479 118.203 57.6799V61.9999H116.203V53.4559H118.107V54.5599C118.437 54.1653 118.853 53.8666 119.355 53.6639C119.856 53.4613 120.421 53.3599 121.051 53.3599Z" fill="white"/>
<path d="M130.644 58.3359L129.156 59.7439V61.9999H127.156V50.1279H129.156V57.2959L133.3 53.4559H135.7L132.132 57.0399L136.036 61.9999H133.604L130.644 58.3359Z" fill="white"/>
</svg>
